# xmcd CD database file
#
# Track frame offsets:
#	150
#	3798
#	13466
#	20800
#	26566
#	32758
#	38280
#	41599
#	49281
#	51487
#	60870
#	68721
#	77468
#	83460
#
# Disc length: 1212 seconds
#
# Revision: 1
# Processed by: cddbd v1.4PL0 Copyright (c) Steve Scherf et al.
# Submitted via: CDex 1.50
#
DISCID=a004ba0e
DTITLE=Sid Jacobs - Bill Evans Guitar
DYEAR=2002
DGENRE=Jazz
TTITLE0=Funkallero
TTITLE1=Laurie
TTITLE2=Letter To Evan
TTITLE3=My Bells
TTITLE4=Orbit
TTITLE5=Peace Piece
TTITLE6=Peri's Scope
TTITLE7=Remembering the Rain
TTITLE8=A Simple Matter of Conviction
TTITLE9=Time Remembered
TTITLE10=Turn Out the Stars
TTITLE11=Two Lonely People
TTITLE12=Very Early
TTITLE13=Waltz For Debby
EXTD=YEAR: 2002
EXTT0=
EXTT1=
EXTT2=
EXTT3=
EXTT4=
EXTT5=
EXTT6=
EXTT7=
EXTT8=
EXTT9=
EXTT10=
EXTT11=
EXTT12=
EXTT13=
PLAYORDER=
